<mxfile host="app.diagrams.net" modified="2023-10-31T15:49:15.046Z" agent="Mozilla/5.0 (Windows NT 10.0; Win64; x64) AppleWebKit/537.36 (KHTML, like Gecko) Chrome/118.0.0.0 Safari/537.36 Edg/118.0.2088.76" etag="jardMTaipnSoTQyiNj6F" version="22.0.8" type="github">
  <diagram id="C5RBs43oDa-KdzZeNtuy" name="Page-1">
    <mxGraphModel dx="2084" dy="3093" grid="1" gridSize="10" guides="1" tooltips="1" connect="1" arrows="1" fold="1" page="1" pageScale="1" pageWidth="827" pageHeight="1169" math="0" shadow="0">
      <root>
        <mxCell id="WIyWlLk6GJQsqaUBKTNV-0" />
        <mxCell id="WIyWlLk6GJQsqaUBKTNV-1" parent="WIyWlLk6GJQsqaUBKTNV-0" />
        <mxCell id="AwindaVcIcbvonQbr8IU-340" style="edgeStyle=none;rounded=0;orthogonalLoop=1;jettySize=auto;html=1;exitX=0.5;exitY=0;exitDx=0;exitDy=0;" parent="WIyWlLk6GJQsqaUBKTNV-1" source="WIyWlLk6GJQsqaUBKTNV-6" target="AwindaVcIcbvonQbr8IU-22" edge="1">
          <mxGeometry relative="1" as="geometry" />
        </mxCell>
        <mxCell id="AwindaVcIcbvonQbr8IU-343" style="edgeStyle=none;rounded=0;orthogonalLoop=1;jettySize=auto;html=1;exitX=1;exitY=0.5;exitDx=0;exitDy=0;entryX=1;entryY=1;entryDx=0;entryDy=0;" parent="WIyWlLk6GJQsqaUBKTNV-1" source="WIyWlLk6GJQsqaUBKTNV-6" target="AwindaVcIcbvonQbr8IU-341" edge="1">
          <mxGeometry relative="1" as="geometry" />
        </mxCell>
        <mxCell id="WIyWlLk6GJQsqaUBKTNV-6" value="medico" style="rhombus;whiteSpace=wrap;html=1;shadow=0;fontFamily=Helvetica;fontSize=12;align=center;strokeWidth=1;spacing=6;spacingTop=-4;" parent="WIyWlLk6GJQsqaUBKTNV-1" vertex="1">
          <mxGeometry x="968" y="170" width="100" height="80" as="geometry" />
        </mxCell>
        <mxCell id="AwindaVcIcbvonQbr8IU-3" style="edgeStyle=orthogonalEdgeStyle;rounded=0;orthogonalLoop=1;jettySize=auto;html=1;" parent="WIyWlLk6GJQsqaUBKTNV-1" edge="1">
          <mxGeometry relative="1" as="geometry">
            <mxPoint x="265.03703703703695" y="630" as="targetPoint" />
            <mxPoint x="265" y="630" as="sourcePoint" />
          </mxGeometry>
        </mxCell>
        <mxCell id="AwindaVcIcbvonQbr8IU-1" value="medicos = especialidades&lt;br&gt;&lt;br&gt;paciente =&amp;nbsp; nome, DN, Endereço, tekefone email,(documentos CPF e RG)&amp;nbsp;&lt;br&gt;covenio= nome cnpj tempo de corencia&amp;nbsp;&lt;br&gt;&lt;br&gt;data e hora da realização, medico responsável, paciente, valor da consulta ou nome do convenio, numero da carteira, especialidade buscada pelo paciente&amp;nbsp;&lt;br&gt;&lt;br&gt;&lt;br&gt;receita = medicamentos, quantidades, mode de uso&amp;nbsp;&lt;br&gt;&lt;br&gt;&lt;br&gt;&lt;br&gt;&lt;br&gt;&lt;br&gt;&lt;br&gt;" style="whiteSpace=wrap;html=1;aspect=fixed;align=left;" parent="WIyWlLk6GJQsqaUBKTNV-1" vertex="1">
          <mxGeometry x="410" y="-90" width="290" height="290" as="geometry" />
        </mxCell>
        <mxCell id="AwindaVcIcbvonQbr8IU-5" value="Assets" style="childLayout=tableLayout;recursiveResize=0;strokeColor=#98bf21;fillColor=#A7C942;shadow=1;" parent="WIyWlLk6GJQsqaUBKTNV-1" vertex="1">
          <mxGeometry x="840" y="20" width="347" height="120" as="geometry" />
        </mxCell>
        <mxCell id="AwindaVcIcbvonQbr8IU-6" style="shape=tableRow;horizontal=0;startSize=0;swimlaneHead=0;swimlaneBody=0;top=0;left=0;bottom=0;right=0;dropTarget=0;collapsible=0;recursiveResize=0;expand=0;fontStyle=0;strokeColor=inherit;fillColor=#ffffff;" parent="AwindaVcIcbvonQbr8IU-5" vertex="1">
          <mxGeometry width="347" height="20" as="geometry" />
        </mxCell>
        <mxCell id="AwindaVcIcbvonQbr8IU-7" value="id" style="connectable=0;recursiveResize=0;strokeColor=inherit;fillColor=#A7C942;align=center;fontStyle=1;fontColor=#FFFFFF;html=1;" parent="AwindaVcIcbvonQbr8IU-6" vertex="1">
          <mxGeometry width="127" height="20" as="geometry">
            <mxRectangle width="127" height="20" as="alternateBounds" />
          </mxGeometry>
        </mxCell>
        <mxCell id="AwindaVcIcbvonQbr8IU-8" value="Especialidade" style="connectable=0;recursiveResize=0;strokeColor=inherit;fillColor=#A7C942;align=center;fontStyle=1;fontColor=#FFFFFF;html=1;" parent="AwindaVcIcbvonQbr8IU-6" vertex="1">
          <mxGeometry x="127" width="120" height="20" as="geometry">
            <mxRectangle width="120" height="20" as="alternateBounds" />
          </mxGeometry>
        </mxCell>
        <mxCell id="AwindaVcIcbvonQbr8IU-9" value="Patente" style="connectable=0;recursiveResize=0;strokeColor=inherit;fillColor=#A7C942;align=center;fontStyle=1;fontColor=#FFFFFF;html=1;" parent="AwindaVcIcbvonQbr8IU-6" vertex="1">
          <mxGeometry x="247" width="100" height="20" as="geometry">
            <mxRectangle width="100" height="20" as="alternateBounds" />
          </mxGeometry>
        </mxCell>
        <mxCell id="AwindaVcIcbvonQbr8IU-10" value="" style="shape=tableRow;horizontal=0;startSize=0;swimlaneHead=0;swimlaneBody=0;top=0;left=0;bottom=0;right=0;dropTarget=0;collapsible=0;recursiveResize=0;expand=0;fontStyle=0;strokeColor=inherit;fillColor=#ffffff;" parent="AwindaVcIcbvonQbr8IU-5" vertex="1">
          <mxGeometry y="20" width="347" height="20" as="geometry" />
        </mxCell>
        <mxCell id="AwindaVcIcbvonQbr8IU-11" value="Luba" style="connectable=0;recursiveResize=0;strokeColor=inherit;fillColor=inherit;align=center;whiteSpace=wrap;html=1;" parent="AwindaVcIcbvonQbr8IU-10" vertex="1">
          <mxGeometry width="127" height="20" as="geometry">
            <mxRectangle width="127" height="20" as="alternateBounds" />
          </mxGeometry>
        </mxCell>
        <mxCell id="AwindaVcIcbvonQbr8IU-12" value="Pediatra" style="connectable=0;recursiveResize=0;strokeColor=inherit;fillColor=inherit;align=center;whiteSpace=wrap;html=1;" parent="AwindaVcIcbvonQbr8IU-10" vertex="1">
          <mxGeometry x="127" width="120" height="20" as="geometry">
            <mxRectangle width="120" height="20" as="alternateBounds" />
          </mxGeometry>
        </mxCell>
        <mxCell id="AwindaVcIcbvonQbr8IU-13" value="especialista" style="connectable=0;recursiveResize=0;strokeColor=inherit;fillColor=inherit;align=center;whiteSpace=wrap;html=1;" parent="AwindaVcIcbvonQbr8IU-10" vertex="1">
          <mxGeometry x="247" width="100" height="20" as="geometry">
            <mxRectangle width="100" height="20" as="alternateBounds" />
          </mxGeometry>
        </mxCell>
        <mxCell id="AwindaVcIcbvonQbr8IU-14" value="" style="shape=tableRow;horizontal=0;startSize=0;swimlaneHead=0;swimlaneBody=0;top=0;left=0;bottom=0;right=0;dropTarget=0;collapsible=0;recursiveResize=0;expand=0;fontStyle=1;strokeColor=inherit;fillColor=#EAF2D3;" parent="AwindaVcIcbvonQbr8IU-5" vertex="1">
          <mxGeometry y="40" width="347" height="30" as="geometry" />
        </mxCell>
        <mxCell id="AwindaVcIcbvonQbr8IU-15" value="Gabriel" style="connectable=0;recursiveResize=0;strokeColor=inherit;fillColor=inherit;whiteSpace=wrap;html=1;" parent="AwindaVcIcbvonQbr8IU-14" vertex="1">
          <mxGeometry width="127" height="30" as="geometry">
            <mxRectangle width="127" height="30" as="alternateBounds" />
          </mxGeometry>
        </mxCell>
        <mxCell id="AwindaVcIcbvonQbr8IU-16" value="Clinica geral" style="connectable=0;recursiveResize=0;strokeColor=inherit;fillColor=inherit;whiteSpace=wrap;html=1;" parent="AwindaVcIcbvonQbr8IU-14" vertex="1">
          <mxGeometry x="127" width="120" height="30" as="geometry">
            <mxRectangle width="120" height="30" as="alternateBounds" />
          </mxGeometry>
        </mxCell>
        <mxCell id="AwindaVcIcbvonQbr8IU-17" value="generalista" style="connectable=0;recursiveResize=0;strokeColor=inherit;fillColor=inherit;whiteSpace=wrap;html=1;" parent="AwindaVcIcbvonQbr8IU-14" vertex="1">
          <mxGeometry x="247" width="100" height="30" as="geometry">
            <mxRectangle width="100" height="30" as="alternateBounds" />
          </mxGeometry>
        </mxCell>
        <mxCell id="AwindaVcIcbvonQbr8IU-18" value="" style="shape=tableRow;horizontal=0;startSize=0;swimlaneHead=0;swimlaneBody=0;top=0;left=0;bottom=0;right=0;dropTarget=0;collapsible=0;recursiveResize=0;expand=0;fontStyle=0;strokeColor=inherit;fillColor=#ffffff;" parent="AwindaVcIcbvonQbr8IU-5" vertex="1">
          <mxGeometry y="70" width="347" height="20" as="geometry" />
        </mxCell>
        <mxCell id="AwindaVcIcbvonQbr8IU-19" value="Orochinho" style="connectable=0;recursiveResize=0;strokeColor=inherit;fillColor=inherit;fontStyle=0;align=center;whiteSpace=wrap;html=1;" parent="AwindaVcIcbvonQbr8IU-18" vertex="1">
          <mxGeometry width="127" height="20" as="geometry">
            <mxRectangle width="127" height="20" as="alternateBounds" />
          </mxGeometry>
        </mxCell>
        <mxCell id="AwindaVcIcbvonQbr8IU-20" value="Gastroenterologia" style="connectable=0;recursiveResize=0;strokeColor=inherit;fillColor=inherit;fontStyle=0;align=center;whiteSpace=wrap;html=1;" parent="AwindaVcIcbvonQbr8IU-18" vertex="1">
          <mxGeometry x="127" width="120" height="20" as="geometry">
            <mxRectangle width="120" height="20" as="alternateBounds" />
          </mxGeometry>
        </mxCell>
        <mxCell id="AwindaVcIcbvonQbr8IU-21" value="especiealista" style="connectable=0;recursiveResize=0;strokeColor=inherit;fillColor=inherit;fontStyle=0;align=center;whiteSpace=wrap;html=1;" parent="AwindaVcIcbvonQbr8IU-18" vertex="1">
          <mxGeometry x="247" width="100" height="20" as="geometry">
            <mxRectangle width="100" height="20" as="alternateBounds" />
          </mxGeometry>
        </mxCell>
        <mxCell id="AwindaVcIcbvonQbr8IU-22" value="" style="shape=tableRow;horizontal=0;startSize=0;swimlaneHead=0;swimlaneBody=0;top=0;left=0;bottom=0;right=0;dropTarget=0;collapsible=0;recursiveResize=0;expand=0;fontStyle=1;strokeColor=inherit;fillColor=#EAF2D3;" parent="AwindaVcIcbvonQbr8IU-5" vertex="1">
          <mxGeometry y="90" width="347" height="30" as="geometry" />
        </mxCell>
        <mxCell id="AwindaVcIcbvonQbr8IU-23" value="Barão" style="connectable=0;recursiveResize=0;strokeColor=inherit;fillColor=inherit;whiteSpace=wrap;html=1;" parent="AwindaVcIcbvonQbr8IU-22" vertex="1">
          <mxGeometry width="127" height="30" as="geometry">
            <mxRectangle width="127" height="30" as="alternateBounds" />
          </mxGeometry>
        </mxCell>
        <mxCell id="AwindaVcIcbvonQbr8IU-24" value="Demartologia" style="connectable=0;recursiveResize=0;strokeColor=inherit;fillColor=inherit;whiteSpace=wrap;html=1;" parent="AwindaVcIcbvonQbr8IU-22" vertex="1">
          <mxGeometry x="127" width="120" height="30" as="geometry">
            <mxRectangle width="120" height="30" as="alternateBounds" />
          </mxGeometry>
        </mxCell>
        <mxCell id="AwindaVcIcbvonQbr8IU-25" value="residente" style="connectable=0;recursiveResize=0;strokeColor=inherit;fillColor=inherit;whiteSpace=wrap;html=1;" parent="AwindaVcIcbvonQbr8IU-22" vertex="1">
          <mxGeometry x="247" width="100" height="30" as="geometry">
            <mxRectangle width="100" height="30" as="alternateBounds" />
          </mxGeometry>
        </mxCell>
        <mxCell id="AwindaVcIcbvonQbr8IU-269" style="edgeStyle=none;rounded=0;orthogonalLoop=1;jettySize=auto;html=1;exitX=1;exitY=0.5;exitDx=0;exitDy=0;entryX=1;entryY=1;entryDx=0;entryDy=0;" parent="WIyWlLk6GJQsqaUBKTNV-1" source="AwindaVcIcbvonQbr8IU-241" target="AwindaVcIcbvonQbr8IU-256" edge="1">
          <mxGeometry relative="1" as="geometry" />
        </mxCell>
        <mxCell id="AwindaVcIcbvonQbr8IU-241" value="Documentos" style="rounded=0;whiteSpace=wrap;html=1;direction=west;" parent="WIyWlLk6GJQsqaUBKTNV-1" vertex="1">
          <mxGeometry x="800" y="515" width="120" height="60" as="geometry" />
        </mxCell>
        <mxCell id="AwindaVcIcbvonQbr8IU-244" value="" style="endArrow=none;html=1;rounded=0;exitX=0;exitY=0.5;exitDx=0;exitDy=0;entryX=0;entryY=0.5;entryDx=0;entryDy=0;" parent="WIyWlLk6GJQsqaUBKTNV-1" source="AwindaVcIcbvonQbr8IU-241" target="AwindaVcIcbvonQbr8IU-278" edge="1">
          <mxGeometry width="50" height="50" relative="1" as="geometry">
            <mxPoint x="900" y="400" as="sourcePoint" />
            <mxPoint x="970" y="370" as="targetPoint" />
            <Array as="points" />
          </mxGeometry>
        </mxCell>
        <mxCell id="AwindaVcIcbvonQbr8IU-245" style="edgeStyle=none;rounded=0;orthogonalLoop=1;jettySize=auto;html=1;entryX=0;entryY=0.5;entryDx=0;entryDy=0;" parent="WIyWlLk6GJQsqaUBKTNV-1" edge="1">
          <mxGeometry relative="1" as="geometry">
            <mxPoint x="963" y="370" as="sourcePoint" />
            <mxPoint x="963" y="370" as="targetPoint" />
          </mxGeometry>
        </mxCell>
        <mxCell id="AwindaVcIcbvonQbr8IU-247" value="Assets" style="childLayout=tableLayout;recursiveResize=0;strokeColor=#98bf21;fillColor=#A7C942;shadow=1;" parent="WIyWlLk6GJQsqaUBKTNV-1" vertex="1">
          <mxGeometry x="323" y="480" width="367" height="119" as="geometry" />
        </mxCell>
        <mxCell id="AwindaVcIcbvonQbr8IU-248" style="shape=tableRow;horizontal=0;startSize=0;swimlaneHead=0;swimlaneBody=0;top=0;left=0;bottom=0;right=0;dropTarget=0;collapsible=0;recursiveResize=0;expand=0;fontStyle=0;strokeColor=inherit;fillColor=#ffffff;" parent="AwindaVcIcbvonQbr8IU-247" vertex="1">
          <mxGeometry width="367" height="22" as="geometry" />
        </mxCell>
        <mxCell id="AwindaVcIcbvonQbr8IU-249" value="id" style="connectable=0;recursiveResize=0;strokeColor=inherit;fillColor=#A7C942;align=center;fontStyle=1;fontColor=#FFFFFF;html=1;" parent="AwindaVcIcbvonQbr8IU-248" vertex="1">
          <mxGeometry width="127" height="22" as="geometry">
            <mxRectangle width="127" height="22" as="alternateBounds" />
          </mxGeometry>
        </mxCell>
        <mxCell id="AwindaVcIcbvonQbr8IU-250" value="RG" style="connectable=0;recursiveResize=0;strokeColor=inherit;fillColor=#A7C942;align=center;fontStyle=1;fontColor=#FFFFFF;html=1;" parent="AwindaVcIcbvonQbr8IU-248" vertex="1">
          <mxGeometry x="127" width="120" height="22" as="geometry">
            <mxRectangle width="120" height="22" as="alternateBounds" />
          </mxGeometry>
        </mxCell>
        <mxCell id="AwindaVcIcbvonQbr8IU-270" value="CPF" style="connectable=0;recursiveResize=0;strokeColor=inherit;fillColor=#A7C942;align=center;fontStyle=1;fontColor=#FFFFFF;html=1;" parent="AwindaVcIcbvonQbr8IU-248" vertex="1">
          <mxGeometry x="247" width="120" height="22" as="geometry">
            <mxRectangle width="120" height="22" as="alternateBounds" />
          </mxGeometry>
        </mxCell>
        <mxCell id="AwindaVcIcbvonQbr8IU-252" value="" style="shape=tableRow;horizontal=0;startSize=0;swimlaneHead=0;swimlaneBody=0;top=0;left=0;bottom=0;right=0;dropTarget=0;collapsible=0;recursiveResize=0;expand=0;fontStyle=0;strokeColor=inherit;fillColor=#ffffff;" parent="AwindaVcIcbvonQbr8IU-247" vertex="1">
          <mxGeometry y="22" width="367" height="20" as="geometry" />
        </mxCell>
        <mxCell id="AwindaVcIcbvonQbr8IU-253" value="Luba" style="connectable=0;recursiveResize=0;strokeColor=inherit;fillColor=inherit;align=center;whiteSpace=wrap;html=1;" parent="AwindaVcIcbvonQbr8IU-252" vertex="1">
          <mxGeometry width="127" height="20" as="geometry">
            <mxRectangle width="127" height="20" as="alternateBounds" />
          </mxGeometry>
        </mxCell>
        <mxCell id="AwindaVcIcbvonQbr8IU-254" value="5551550-5" style="connectable=0;recursiveResize=0;strokeColor=inherit;fillColor=inherit;align=center;whiteSpace=wrap;html=1;" parent="AwindaVcIcbvonQbr8IU-252" vertex="1">
          <mxGeometry x="127" width="120" height="20" as="geometry">
            <mxRectangle width="120" height="20" as="alternateBounds" />
          </mxGeometry>
        </mxCell>
        <mxCell id="AwindaVcIcbvonQbr8IU-271" value="641647847-44" style="connectable=0;recursiveResize=0;strokeColor=inherit;fillColor=inherit;align=center;whiteSpace=wrap;html=1;" parent="AwindaVcIcbvonQbr8IU-252" vertex="1">
          <mxGeometry x="247" width="120" height="20" as="geometry">
            <mxRectangle width="120" height="20" as="alternateBounds" />
          </mxGeometry>
        </mxCell>
        <mxCell id="AwindaVcIcbvonQbr8IU-256" value="" style="shape=tableRow;horizontal=0;startSize=0;swimlaneHead=0;swimlaneBody=0;top=0;left=0;bottom=0;right=0;dropTarget=0;collapsible=0;recursiveResize=0;expand=0;fontStyle=1;strokeColor=inherit;fillColor=#EAF2D3;" parent="AwindaVcIcbvonQbr8IU-247" vertex="1">
          <mxGeometry y="42" width="367" height="23" as="geometry" />
        </mxCell>
        <mxCell id="AwindaVcIcbvonQbr8IU-257" value="Gabriel" style="connectable=0;recursiveResize=0;strokeColor=inherit;fillColor=inherit;whiteSpace=wrap;html=1;" parent="AwindaVcIcbvonQbr8IU-256" vertex="1">
          <mxGeometry width="127" height="23" as="geometry">
            <mxRectangle width="127" height="23" as="alternateBounds" />
          </mxGeometry>
        </mxCell>
        <mxCell id="AwindaVcIcbvonQbr8IU-258" value="5551550-5" style="connectable=0;recursiveResize=0;strokeColor=inherit;fillColor=inherit;whiteSpace=wrap;html=1;" parent="AwindaVcIcbvonQbr8IU-256" vertex="1">
          <mxGeometry x="127" width="120" height="23" as="geometry">
            <mxRectangle width="120" height="23" as="alternateBounds" />
          </mxGeometry>
        </mxCell>
        <mxCell id="AwindaVcIcbvonQbr8IU-272" value="641647847-44" style="connectable=0;recursiveResize=0;strokeColor=inherit;fillColor=inherit;whiteSpace=wrap;html=1;" parent="AwindaVcIcbvonQbr8IU-256" vertex="1">
          <mxGeometry x="247" width="120" height="23" as="geometry">
            <mxRectangle width="120" height="23" as="alternateBounds" />
          </mxGeometry>
        </mxCell>
        <mxCell id="AwindaVcIcbvonQbr8IU-260" value="" style="shape=tableRow;horizontal=0;startSize=0;swimlaneHead=0;swimlaneBody=0;top=0;left=0;bottom=0;right=0;dropTarget=0;collapsible=0;recursiveResize=0;expand=0;fontStyle=0;strokeColor=inherit;fillColor=#ffffff;" parent="AwindaVcIcbvonQbr8IU-247" vertex="1">
          <mxGeometry y="65" width="367" height="22" as="geometry" />
        </mxCell>
        <mxCell id="AwindaVcIcbvonQbr8IU-261" value="Orochinho" style="connectable=0;recursiveResize=0;strokeColor=inherit;fillColor=inherit;fontStyle=0;align=center;whiteSpace=wrap;html=1;" parent="AwindaVcIcbvonQbr8IU-260" vertex="1">
          <mxGeometry width="127" height="22" as="geometry">
            <mxRectangle width="127" height="22" as="alternateBounds" />
          </mxGeometry>
        </mxCell>
        <mxCell id="AwindaVcIcbvonQbr8IU-262" value="5551550-5" style="connectable=0;recursiveResize=0;strokeColor=inherit;fillColor=inherit;fontStyle=0;align=center;whiteSpace=wrap;html=1;" parent="AwindaVcIcbvonQbr8IU-260" vertex="1">
          <mxGeometry x="127" width="120" height="22" as="geometry">
            <mxRectangle width="120" height="22" as="alternateBounds" />
          </mxGeometry>
        </mxCell>
        <mxCell id="AwindaVcIcbvonQbr8IU-273" value="641647847-44" style="connectable=0;recursiveResize=0;strokeColor=inherit;fillColor=inherit;fontStyle=0;align=center;whiteSpace=wrap;html=1;" parent="AwindaVcIcbvonQbr8IU-260" vertex="1">
          <mxGeometry x="247" width="120" height="22" as="geometry">
            <mxRectangle width="120" height="22" as="alternateBounds" />
          </mxGeometry>
        </mxCell>
        <mxCell id="AwindaVcIcbvonQbr8IU-264" value="" style="shape=tableRow;horizontal=0;startSize=0;swimlaneHead=0;swimlaneBody=0;top=0;left=0;bottom=0;right=0;dropTarget=0;collapsible=0;recursiveResize=0;expand=0;fontStyle=1;strokeColor=inherit;fillColor=#EAF2D3;" parent="AwindaVcIcbvonQbr8IU-247" vertex="1">
          <mxGeometry y="87" width="367" height="32" as="geometry" />
        </mxCell>
        <mxCell id="AwindaVcIcbvonQbr8IU-265" value="Barão" style="connectable=0;recursiveResize=0;strokeColor=inherit;fillColor=inherit;whiteSpace=wrap;html=1;" parent="AwindaVcIcbvonQbr8IU-264" vertex="1">
          <mxGeometry width="127" height="32" as="geometry">
            <mxRectangle width="127" height="32" as="alternateBounds" />
          </mxGeometry>
        </mxCell>
        <mxCell id="AwindaVcIcbvonQbr8IU-266" value="5551550-5" style="connectable=0;recursiveResize=0;strokeColor=inherit;fillColor=inherit;whiteSpace=wrap;html=1;" parent="AwindaVcIcbvonQbr8IU-264" vertex="1">
          <mxGeometry x="127" width="120" height="32" as="geometry">
            <mxRectangle width="120" height="32" as="alternateBounds" />
          </mxGeometry>
        </mxCell>
        <mxCell id="AwindaVcIcbvonQbr8IU-274" value="641647847-44" style="connectable=0;recursiveResize=0;strokeColor=inherit;fillColor=inherit;whiteSpace=wrap;html=1;" parent="AwindaVcIcbvonQbr8IU-264" vertex="1">
          <mxGeometry x="247" width="120" height="32" as="geometry">
            <mxRectangle width="120" height="32" as="alternateBounds" />
          </mxGeometry>
        </mxCell>
        <mxCell id="AwindaVcIcbvonQbr8IU-279" style="edgeStyle=none;rounded=0;orthogonalLoop=1;jettySize=auto;html=1;exitX=0.5;exitY=1;exitDx=0;exitDy=0;entryX=0.5;entryY=0;entryDx=0;entryDy=0;" parent="WIyWlLk6GJQsqaUBKTNV-1" source="AwindaVcIcbvonQbr8IU-275" target="AwindaVcIcbvonQbr8IU-278" edge="1">
          <mxGeometry relative="1" as="geometry" />
        </mxCell>
        <mxCell id="AwindaVcIcbvonQbr8IU-338" style="edgeStyle=none;rounded=0;orthogonalLoop=1;jettySize=auto;html=1;exitX=0.5;exitY=0;exitDx=0;exitDy=0;entryX=0.5;entryY=1;entryDx=0;entryDy=0;" parent="WIyWlLk6GJQsqaUBKTNV-1" source="AwindaVcIcbvonQbr8IU-275" target="WIyWlLk6GJQsqaUBKTNV-6" edge="1">
          <mxGeometry relative="1" as="geometry" />
        </mxCell>
        <mxCell id="jXCr0CRvBW8UPMfNdvnt-1" style="edgeStyle=orthogonalEdgeStyle;rounded=0;orthogonalLoop=1;jettySize=auto;html=1;exitX=0;exitY=0.5;exitDx=0;exitDy=0;entryX=0;entryY=0.5;entryDx=0;entryDy=0;" edge="1" parent="WIyWlLk6GJQsqaUBKTNV-1" source="AwindaVcIcbvonQbr8IU-275" target="jXCr0CRvBW8UPMfNdvnt-0">
          <mxGeometry relative="1" as="geometry" />
        </mxCell>
        <mxCell id="AwindaVcIcbvonQbr8IU-275" value="Atendimento" style="ellipse;whiteSpace=wrap;html=1;aspect=fixed;" parent="WIyWlLk6GJQsqaUBKTNV-1" vertex="1">
          <mxGeometry x="963" y="310" width="110" height="110" as="geometry" />
        </mxCell>
        <mxCell id="AwindaVcIcbvonQbr8IU-278" value="Paciente" style="rhombus;whiteSpace=wrap;html=1;shadow=0;fontFamily=Helvetica;fontSize=12;align=center;strokeWidth=1;spacing=6;spacingTop=-4;" parent="WIyWlLk6GJQsqaUBKTNV-1" vertex="1">
          <mxGeometry x="968" y="505" width="100" height="80" as="geometry" />
        </mxCell>
        <mxCell id="AwindaVcIcbvonQbr8IU-99" value="Assets" style="childLayout=tableLayout;recursiveResize=0;strokeColor=#98bf21;fillColor=#A7C942;shadow=1;" parent="WIyWlLk6GJQsqaUBKTNV-1" vertex="1">
          <mxGeometry x="750" y="690" width="560" height="130" as="geometry" />
        </mxCell>
        <mxCell id="AwindaVcIcbvonQbr8IU-100" style="shape=tableRow;horizontal=0;startSize=0;swimlaneHead=0;swimlaneBody=0;top=0;left=0;bottom=0;right=0;dropTarget=0;collapsible=0;recursiveResize=0;expand=0;fontStyle=0;strokeColor=inherit;fillColor=#ffffff;" parent="AwindaVcIcbvonQbr8IU-99" vertex="1">
          <mxGeometry width="560" height="20" as="geometry" />
        </mxCell>
        <mxCell id="AwindaVcIcbvonQbr8IU-101" value="id" style="connectable=0;recursiveResize=0;strokeColor=inherit;fillColor=#A7C942;align=center;fontStyle=1;fontColor=#FFFFFF;html=1;" parent="AwindaVcIcbvonQbr8IU-100" vertex="1">
          <mxGeometry width="140" height="20" as="geometry">
            <mxRectangle width="140" height="20" as="alternateBounds" />
          </mxGeometry>
        </mxCell>
        <mxCell id="AwindaVcIcbvonQbr8IU-102" value="Data de nascimento" style="connectable=0;recursiveResize=0;strokeColor=inherit;fillColor=#A7C942;align=center;fontStyle=1;fontColor=#FFFFFF;html=1;" parent="AwindaVcIcbvonQbr8IU-100" vertex="1">
          <mxGeometry x="140" width="120" height="20" as="geometry">
            <mxRectangle width="120" height="20" as="alternateBounds" />
          </mxGeometry>
        </mxCell>
        <mxCell id="AwindaVcIcbvonQbr8IU-103" value="Endereço" style="connectable=0;recursiveResize=0;strokeColor=inherit;fillColor=#A7C942;align=center;fontStyle=1;fontColor=#FFFFFF;html=1;" parent="AwindaVcIcbvonQbr8IU-100" vertex="1">
          <mxGeometry x="260" width="100" height="20" as="geometry">
            <mxRectangle width="100" height="20" as="alternateBounds" />
          </mxGeometry>
        </mxCell>
        <mxCell id="AwindaVcIcbvonQbr8IU-221" value="Telefone" style="connectable=0;recursiveResize=0;strokeColor=inherit;fillColor=#A7C942;align=center;fontStyle=1;fontColor=#FFFFFF;html=1;" parent="AwindaVcIcbvonQbr8IU-100" vertex="1">
          <mxGeometry x="360" width="100" height="20" as="geometry">
            <mxRectangle width="100" height="20" as="alternateBounds" />
          </mxGeometry>
        </mxCell>
        <mxCell id="AwindaVcIcbvonQbr8IU-226" value="E-mail" style="connectable=0;recursiveResize=0;strokeColor=inherit;fillColor=#A7C942;align=center;fontStyle=1;fontColor=#FFFFFF;html=1;" parent="AwindaVcIcbvonQbr8IU-100" vertex="1">
          <mxGeometry x="460" width="100" height="20" as="geometry">
            <mxRectangle width="100" height="20" as="alternateBounds" />
          </mxGeometry>
        </mxCell>
        <mxCell id="AwindaVcIcbvonQbr8IU-104" value="" style="shape=tableRow;horizontal=0;startSize=0;swimlaneHead=0;swimlaneBody=0;top=0;left=0;bottom=0;right=0;dropTarget=0;collapsible=0;recursiveResize=0;expand=0;fontStyle=0;strokeColor=inherit;fillColor=#ffffff;" parent="AwindaVcIcbvonQbr8IU-99" vertex="1">
          <mxGeometry y="20" width="560" height="30" as="geometry" />
        </mxCell>
        <mxCell id="AwindaVcIcbvonQbr8IU-105" value="Luba" style="connectable=0;recursiveResize=0;strokeColor=inherit;fillColor=inherit;align=center;whiteSpace=wrap;html=1;" parent="AwindaVcIcbvonQbr8IU-104" vertex="1">
          <mxGeometry width="140" height="30" as="geometry">
            <mxRectangle width="140" height="30" as="alternateBounds" />
          </mxGeometry>
        </mxCell>
        <mxCell id="AwindaVcIcbvonQbr8IU-106" value="00/00/0000" style="connectable=0;recursiveResize=0;strokeColor=inherit;fillColor=inherit;align=center;whiteSpace=wrap;html=1;" parent="AwindaVcIcbvonQbr8IU-104" vertex="1">
          <mxGeometry x="140" width="120" height="30" as="geometry">
            <mxRectangle width="120" height="30" as="alternateBounds" />
          </mxGeometry>
        </mxCell>
        <mxCell id="AwindaVcIcbvonQbr8IU-107" value="R.aturusbago SP" style="connectable=0;recursiveResize=0;strokeColor=inherit;fillColor=inherit;align=center;whiteSpace=wrap;html=1;" parent="AwindaVcIcbvonQbr8IU-104" vertex="1">
          <mxGeometry x="260" width="100" height="30" as="geometry">
            <mxRectangle width="100" height="30" as="alternateBounds" />
          </mxGeometry>
        </mxCell>
        <mxCell id="AwindaVcIcbvonQbr8IU-222" value="11 654-888" style="connectable=0;recursiveResize=0;strokeColor=inherit;fillColor=inherit;align=center;whiteSpace=wrap;html=1;" parent="AwindaVcIcbvonQbr8IU-104" vertex="1">
          <mxGeometry x="360" width="100" height="30" as="geometry">
            <mxRectangle width="100" height="30" as="alternateBounds" />
          </mxGeometry>
        </mxCell>
        <mxCell id="AwindaVcIcbvonQbr8IU-227" value="@gmail.com" style="connectable=0;recursiveResize=0;strokeColor=inherit;fillColor=inherit;align=center;whiteSpace=wrap;html=1;" parent="AwindaVcIcbvonQbr8IU-104" vertex="1">
          <mxGeometry x="460" width="100" height="30" as="geometry">
            <mxRectangle width="100" height="30" as="alternateBounds" />
          </mxGeometry>
        </mxCell>
        <mxCell id="AwindaVcIcbvonQbr8IU-108" value="" style="shape=tableRow;horizontal=0;startSize=0;swimlaneHead=0;swimlaneBody=0;top=0;left=0;bottom=0;right=0;dropTarget=0;collapsible=0;recursiveResize=0;expand=0;fontStyle=1;strokeColor=inherit;fillColor=#EAF2D3;" parent="AwindaVcIcbvonQbr8IU-99" vertex="1">
          <mxGeometry y="50" width="560" height="30" as="geometry" />
        </mxCell>
        <mxCell id="AwindaVcIcbvonQbr8IU-109" value="Gabriel" style="connectable=0;recursiveResize=0;strokeColor=inherit;fillColor=inherit;whiteSpace=wrap;html=1;" parent="AwindaVcIcbvonQbr8IU-108" vertex="1">
          <mxGeometry width="140" height="30" as="geometry">
            <mxRectangle width="140" height="30" as="alternateBounds" />
          </mxGeometry>
        </mxCell>
        <mxCell id="AwindaVcIcbvonQbr8IU-110" value="00/00/0000" style="connectable=0;recursiveResize=0;strokeColor=inherit;fillColor=inherit;whiteSpace=wrap;html=1;" parent="AwindaVcIcbvonQbr8IU-108" vertex="1">
          <mxGeometry x="140" width="120" height="30" as="geometry">
            <mxRectangle width="120" height="30" as="alternateBounds" />
          </mxGeometry>
        </mxCell>
        <mxCell id="AwindaVcIcbvonQbr8IU-111" value="R. nelson SP" style="connectable=0;recursiveResize=0;strokeColor=inherit;fillColor=inherit;whiteSpace=wrap;html=1;" parent="AwindaVcIcbvonQbr8IU-108" vertex="1">
          <mxGeometry x="260" width="100" height="30" as="geometry">
            <mxRectangle width="100" height="30" as="alternateBounds" />
          </mxGeometry>
        </mxCell>
        <mxCell id="AwindaVcIcbvonQbr8IU-223" value="11 654-888" style="connectable=0;recursiveResize=0;strokeColor=inherit;fillColor=inherit;whiteSpace=wrap;html=1;" parent="AwindaVcIcbvonQbr8IU-108" vertex="1">
          <mxGeometry x="360" width="100" height="30" as="geometry">
            <mxRectangle width="100" height="30" as="alternateBounds" />
          </mxGeometry>
        </mxCell>
        <mxCell id="AwindaVcIcbvonQbr8IU-228" value="@gmail.com" style="connectable=0;recursiveResize=0;strokeColor=inherit;fillColor=inherit;whiteSpace=wrap;html=1;" parent="AwindaVcIcbvonQbr8IU-108" vertex="1">
          <mxGeometry x="460" width="100" height="30" as="geometry">
            <mxRectangle width="100" height="30" as="alternateBounds" />
          </mxGeometry>
        </mxCell>
        <mxCell id="AwindaVcIcbvonQbr8IU-112" value="" style="shape=tableRow;horizontal=0;startSize=0;swimlaneHead=0;swimlaneBody=0;top=0;left=0;bottom=0;right=0;dropTarget=0;collapsible=0;recursiveResize=0;expand=0;fontStyle=0;strokeColor=inherit;fillColor=#ffffff;" parent="AwindaVcIcbvonQbr8IU-99" vertex="1">
          <mxGeometry y="80" width="560" height="20" as="geometry" />
        </mxCell>
        <mxCell id="AwindaVcIcbvonQbr8IU-113" value="Orochinho" style="connectable=0;recursiveResize=0;strokeColor=inherit;fillColor=inherit;fontStyle=0;align=center;whiteSpace=wrap;html=1;" parent="AwindaVcIcbvonQbr8IU-112" vertex="1">
          <mxGeometry width="140" height="20" as="geometry">
            <mxRectangle width="140" height="20" as="alternateBounds" />
          </mxGeometry>
        </mxCell>
        <mxCell id="AwindaVcIcbvonQbr8IU-114" value="00/00/0000" style="connectable=0;recursiveResize=0;strokeColor=inherit;fillColor=inherit;fontStyle=0;align=center;whiteSpace=wrap;html=1;" parent="AwindaVcIcbvonQbr8IU-112" vertex="1">
          <mxGeometry x="140" width="120" height="20" as="geometry">
            <mxRectangle width="120" height="20" as="alternateBounds" />
          </mxGeometry>
        </mxCell>
        <mxCell id="AwindaVcIcbvonQbr8IU-115" value="R. plastantion SP" style="connectable=0;recursiveResize=0;strokeColor=inherit;fillColor=inherit;fontStyle=0;align=center;whiteSpace=wrap;html=1;" parent="AwindaVcIcbvonQbr8IU-112" vertex="1">
          <mxGeometry x="260" width="100" height="20" as="geometry">
            <mxRectangle width="100" height="20" as="alternateBounds" />
          </mxGeometry>
        </mxCell>
        <mxCell id="AwindaVcIcbvonQbr8IU-224" value="11 654-888" style="connectable=0;recursiveResize=0;strokeColor=inherit;fillColor=inherit;fontStyle=0;align=center;whiteSpace=wrap;html=1;" parent="AwindaVcIcbvonQbr8IU-112" vertex="1">
          <mxGeometry x="360" width="100" height="20" as="geometry">
            <mxRectangle width="100" height="20" as="alternateBounds" />
          </mxGeometry>
        </mxCell>
        <mxCell id="AwindaVcIcbvonQbr8IU-229" value="@gmail.com" style="connectable=0;recursiveResize=0;strokeColor=inherit;fillColor=inherit;fontStyle=0;align=center;whiteSpace=wrap;html=1;" parent="AwindaVcIcbvonQbr8IU-112" vertex="1">
          <mxGeometry x="460" width="100" height="20" as="geometry">
            <mxRectangle width="100" height="20" as="alternateBounds" />
          </mxGeometry>
        </mxCell>
        <mxCell id="AwindaVcIcbvonQbr8IU-116" value="" style="shape=tableRow;horizontal=0;startSize=0;swimlaneHead=0;swimlaneBody=0;top=0;left=0;bottom=0;right=0;dropTarget=0;collapsible=0;recursiveResize=0;expand=0;fontStyle=1;strokeColor=inherit;fillColor=#EAF2D3;" parent="AwindaVcIcbvonQbr8IU-99" vertex="1">
          <mxGeometry y="100" width="560" height="30" as="geometry" />
        </mxCell>
        <mxCell id="AwindaVcIcbvonQbr8IU-117" value="Barão" style="connectable=0;recursiveResize=0;strokeColor=inherit;fillColor=inherit;whiteSpace=wrap;html=1;" parent="AwindaVcIcbvonQbr8IU-116" vertex="1">
          <mxGeometry width="140" height="30" as="geometry">
            <mxRectangle width="140" height="30" as="alternateBounds" />
          </mxGeometry>
        </mxCell>
        <mxCell id="AwindaVcIcbvonQbr8IU-118" value="00/00/0000" style="connectable=0;recursiveResize=0;strokeColor=inherit;fillColor=inherit;whiteSpace=wrap;html=1;" parent="AwindaVcIcbvonQbr8IU-116" vertex="1">
          <mxGeometry x="140" width="120" height="30" as="geometry">
            <mxRectangle width="120" height="30" as="alternateBounds" />
          </mxGeometry>
        </mxCell>
        <mxCell id="AwindaVcIcbvonQbr8IU-119" value="R. nintendo SP" style="connectable=0;recursiveResize=0;strokeColor=inherit;fillColor=inherit;whiteSpace=wrap;html=1;" parent="AwindaVcIcbvonQbr8IU-116" vertex="1">
          <mxGeometry x="260" width="100" height="30" as="geometry">
            <mxRectangle width="100" height="30" as="alternateBounds" />
          </mxGeometry>
        </mxCell>
        <mxCell id="AwindaVcIcbvonQbr8IU-225" value="11 654-888" style="connectable=0;recursiveResize=0;strokeColor=inherit;fillColor=inherit;whiteSpace=wrap;html=1;" parent="AwindaVcIcbvonQbr8IU-116" vertex="1">
          <mxGeometry x="360" width="100" height="30" as="geometry">
            <mxRectangle width="100" height="30" as="alternateBounds" />
          </mxGeometry>
        </mxCell>
        <mxCell id="AwindaVcIcbvonQbr8IU-230" value="@gmail.com" style="connectable=0;recursiveResize=0;strokeColor=inherit;fillColor=inherit;whiteSpace=wrap;html=1;" parent="AwindaVcIcbvonQbr8IU-116" vertex="1">
          <mxGeometry x="460" width="100" height="30" as="geometry">
            <mxRectangle width="100" height="30" as="alternateBounds" />
          </mxGeometry>
        </mxCell>
        <mxCell id="AwindaVcIcbvonQbr8IU-238" style="edgeStyle=none;rounded=0;orthogonalLoop=1;jettySize=auto;html=1;exitX=0.75;exitY=0;exitDx=0;exitDy=0;" parent="AwindaVcIcbvonQbr8IU-99" source="AwindaVcIcbvonQbr8IU-116" target="AwindaVcIcbvonQbr8IU-116" edge="1">
          <mxGeometry relative="1" as="geometry" />
        </mxCell>
        <mxCell id="AwindaVcIcbvonQbr8IU-280" style="edgeStyle=none;rounded=0;orthogonalLoop=1;jettySize=auto;html=1;exitX=0.5;exitY=1;exitDx=0;exitDy=0;entryX=0.482;entryY=-0.25;entryDx=0;entryDy=0;entryPerimeter=0;" parent="WIyWlLk6GJQsqaUBKTNV-1" source="AwindaVcIcbvonQbr8IU-278" target="AwindaVcIcbvonQbr8IU-100" edge="1">
          <mxGeometry relative="1" as="geometry" />
        </mxCell>
        <mxCell id="AwindaVcIcbvonQbr8IU-330" style="edgeStyle=none;rounded=0;orthogonalLoop=1;jettySize=auto;html=1;exitX=0;exitY=0.5;exitDx=0;exitDy=0;entryX=0;entryY=0.75;entryDx=0;entryDy=0;" parent="WIyWlLk6GJQsqaUBKTNV-1" source="AwindaVcIcbvonQbr8IU-303" target="AwindaVcIcbvonQbr8IU-318" edge="1">
          <mxGeometry relative="1" as="geometry" />
        </mxCell>
        <mxCell id="AwindaVcIcbvonQbr8IU-303" value="Convenio" style="rounded=0;whiteSpace=wrap;html=1;direction=west;" parent="WIyWlLk6GJQsqaUBKTNV-1" vertex="1">
          <mxGeometry x="1121" y="515" width="120" height="60" as="geometry" />
        </mxCell>
        <mxCell id="AwindaVcIcbvonQbr8IU-304" value="" style="endArrow=none;html=1;rounded=0;entryX=1;entryY=0.5;entryDx=0;entryDy=0;exitX=1;exitY=0.5;exitDx=0;exitDy=0;" parent="WIyWlLk6GJQsqaUBKTNV-1" source="AwindaVcIcbvonQbr8IU-278" target="AwindaVcIcbvonQbr8IU-303" edge="1">
          <mxGeometry width="50" height="50" relative="1" as="geometry">
            <mxPoint x="1080" y="550" as="sourcePoint" />
            <mxPoint x="1118" y="550" as="targetPoint" />
            <Array as="points" />
          </mxGeometry>
        </mxCell>
        <mxCell id="AwindaVcIcbvonQbr8IU-309" value="Assets" style="childLayout=tableLayout;recursiveResize=0;strokeColor=#98bf21;fillColor=#A7C942;shadow=1;" parent="WIyWlLk6GJQsqaUBKTNV-1" vertex="1">
          <mxGeometry x="1340" y="485.5" width="400" height="119" as="geometry" />
        </mxCell>
        <mxCell id="AwindaVcIcbvonQbr8IU-310" style="shape=tableRow;horizontal=0;startSize=0;swimlaneHead=0;swimlaneBody=0;top=0;left=0;bottom=0;right=0;dropTarget=0;collapsible=0;recursiveResize=0;expand=0;fontStyle=0;strokeColor=inherit;fillColor=#ffffff;" parent="AwindaVcIcbvonQbr8IU-309" vertex="1">
          <mxGeometry width="400" height="22" as="geometry" />
        </mxCell>
        <mxCell id="AwindaVcIcbvonQbr8IU-311" value="id" style="connectable=0;recursiveResize=0;strokeColor=inherit;fillColor=#A7C942;align=center;fontStyle=1;fontColor=#FFFFFF;html=1;" parent="AwindaVcIcbvonQbr8IU-310" vertex="1">
          <mxGeometry width="138" height="22" as="geometry">
            <mxRectangle width="138" height="22" as="alternateBounds" />
          </mxGeometry>
        </mxCell>
        <mxCell id="AwindaVcIcbvonQbr8IU-312" value="CNPJ" style="connectable=0;recursiveResize=0;strokeColor=inherit;fillColor=#A7C942;align=center;fontStyle=1;fontColor=#FFFFFF;html=1;" parent="AwindaVcIcbvonQbr8IU-310" vertex="1">
          <mxGeometry x="138" width="131" height="22" as="geometry">
            <mxRectangle width="131" height="22" as="alternateBounds" />
          </mxGeometry>
        </mxCell>
        <mxCell id="AwindaVcIcbvonQbr8IU-313" value="Tempo de coerencia&amp;nbsp;" style="connectable=0;recursiveResize=0;strokeColor=inherit;fillColor=#A7C942;align=center;fontStyle=1;fontColor=#FFFFFF;html=1;" parent="AwindaVcIcbvonQbr8IU-310" vertex="1">
          <mxGeometry x="269" width="131" height="22" as="geometry">
            <mxRectangle width="131" height="22" as="alternateBounds" />
          </mxGeometry>
        </mxCell>
        <mxCell id="AwindaVcIcbvonQbr8IU-314" value="" style="shape=tableRow;horizontal=0;startSize=0;swimlaneHead=0;swimlaneBody=0;top=0;left=0;bottom=0;right=0;dropTarget=0;collapsible=0;recursiveResize=0;expand=0;fontStyle=0;strokeColor=inherit;fillColor=#ffffff;" parent="AwindaVcIcbvonQbr8IU-309" vertex="1">
          <mxGeometry y="22" width="400" height="20" as="geometry" />
        </mxCell>
        <mxCell id="AwindaVcIcbvonQbr8IU-315" value="Luba" style="connectable=0;recursiveResize=0;strokeColor=inherit;fillColor=inherit;align=center;whiteSpace=wrap;html=1;" parent="AwindaVcIcbvonQbr8IU-314" vertex="1">
          <mxGeometry width="138" height="20" as="geometry">
            <mxRectangle width="138" height="20" as="alternateBounds" />
          </mxGeometry>
        </mxCell>
        <mxCell id="AwindaVcIcbvonQbr8IU-316" value="5551550-5" style="connectable=0;recursiveResize=0;strokeColor=inherit;fillColor=inherit;align=center;whiteSpace=wrap;html=1;" parent="AwindaVcIcbvonQbr8IU-314" vertex="1">
          <mxGeometry x="138" width="131" height="20" as="geometry">
            <mxRectangle width="131" height="20" as="alternateBounds" />
          </mxGeometry>
        </mxCell>
        <mxCell id="AwindaVcIcbvonQbr8IU-317" value="155 Dias" style="connectable=0;recursiveResize=0;strokeColor=inherit;fillColor=inherit;align=center;whiteSpace=wrap;html=1;" parent="AwindaVcIcbvonQbr8IU-314" vertex="1">
          <mxGeometry x="269" width="131" height="20" as="geometry">
            <mxRectangle width="131" height="20" as="alternateBounds" />
          </mxGeometry>
        </mxCell>
        <mxCell id="AwindaVcIcbvonQbr8IU-318" value="" style="shape=tableRow;horizontal=0;startSize=0;swimlaneHead=0;swimlaneBody=0;top=0;left=0;bottom=0;right=0;dropTarget=0;collapsible=0;recursiveResize=0;expand=0;fontStyle=1;strokeColor=inherit;fillColor=#EAF2D3;" parent="AwindaVcIcbvonQbr8IU-309" vertex="1">
          <mxGeometry y="42" width="400" height="23" as="geometry" />
        </mxCell>
        <mxCell id="AwindaVcIcbvonQbr8IU-319" value="Gabriel" style="connectable=0;recursiveResize=0;strokeColor=inherit;fillColor=inherit;whiteSpace=wrap;html=1;" parent="AwindaVcIcbvonQbr8IU-318" vertex="1">
          <mxGeometry width="138" height="23" as="geometry">
            <mxRectangle width="138" height="23" as="alternateBounds" />
          </mxGeometry>
        </mxCell>
        <mxCell id="AwindaVcIcbvonQbr8IU-320" value="5551550-5" style="connectable=0;recursiveResize=0;strokeColor=inherit;fillColor=inherit;whiteSpace=wrap;html=1;" parent="AwindaVcIcbvonQbr8IU-318" vertex="1">
          <mxGeometry x="138" width="131" height="23" as="geometry">
            <mxRectangle width="131" height="23" as="alternateBounds" />
          </mxGeometry>
        </mxCell>
        <mxCell id="AwindaVcIcbvonQbr8IU-321" value="365 Dias" style="connectable=0;recursiveResize=0;strokeColor=inherit;fillColor=inherit;whiteSpace=wrap;html=1;" parent="AwindaVcIcbvonQbr8IU-318" vertex="1">
          <mxGeometry x="269" width="131" height="23" as="geometry">
            <mxRectangle width="131" height="23" as="alternateBounds" />
          </mxGeometry>
        </mxCell>
        <mxCell id="AwindaVcIcbvonQbr8IU-322" value="" style="shape=tableRow;horizontal=0;startSize=0;swimlaneHead=0;swimlaneBody=0;top=0;left=0;bottom=0;right=0;dropTarget=0;collapsible=0;recursiveResize=0;expand=0;fontStyle=0;strokeColor=inherit;fillColor=#ffffff;" parent="AwindaVcIcbvonQbr8IU-309" vertex="1">
          <mxGeometry y="65" width="400" height="22" as="geometry" />
        </mxCell>
        <mxCell id="AwindaVcIcbvonQbr8IU-323" value="Orochinho" style="connectable=0;recursiveResize=0;strokeColor=inherit;fillColor=inherit;fontStyle=0;align=center;whiteSpace=wrap;html=1;" parent="AwindaVcIcbvonQbr8IU-322" vertex="1">
          <mxGeometry width="138" height="22" as="geometry">
            <mxRectangle width="138" height="22" as="alternateBounds" />
          </mxGeometry>
        </mxCell>
        <mxCell id="AwindaVcIcbvonQbr8IU-324" value="5551550-5" style="connectable=0;recursiveResize=0;strokeColor=inherit;fillColor=inherit;fontStyle=0;align=center;whiteSpace=wrap;html=1;" parent="AwindaVcIcbvonQbr8IU-322" vertex="1">
          <mxGeometry x="138" width="131" height="22" as="geometry">
            <mxRectangle width="131" height="22" as="alternateBounds" />
          </mxGeometry>
        </mxCell>
        <mxCell id="AwindaVcIcbvonQbr8IU-325" value="44 Dias" style="connectable=0;recursiveResize=0;strokeColor=inherit;fillColor=inherit;fontStyle=0;align=center;whiteSpace=wrap;html=1;" parent="AwindaVcIcbvonQbr8IU-322" vertex="1">
          <mxGeometry x="269" width="131" height="22" as="geometry">
            <mxRectangle width="131" height="22" as="alternateBounds" />
          </mxGeometry>
        </mxCell>
        <mxCell id="AwindaVcIcbvonQbr8IU-326" value="" style="shape=tableRow;horizontal=0;startSize=0;swimlaneHead=0;swimlaneBody=0;top=0;left=0;bottom=0;right=0;dropTarget=0;collapsible=0;recursiveResize=0;expand=0;fontStyle=1;strokeColor=inherit;fillColor=#EAF2D3;" parent="AwindaVcIcbvonQbr8IU-309" vertex="1">
          <mxGeometry y="87" width="400" height="32" as="geometry" />
        </mxCell>
        <mxCell id="AwindaVcIcbvonQbr8IU-327" value="Barão" style="connectable=0;recursiveResize=0;strokeColor=inherit;fillColor=inherit;whiteSpace=wrap;html=1;" parent="AwindaVcIcbvonQbr8IU-326" vertex="1">
          <mxGeometry width="138" height="32" as="geometry">
            <mxRectangle width="138" height="32" as="alternateBounds" />
          </mxGeometry>
        </mxCell>
        <mxCell id="AwindaVcIcbvonQbr8IU-328" value="5551550-5" style="connectable=0;recursiveResize=0;strokeColor=inherit;fillColor=inherit;whiteSpace=wrap;html=1;" parent="AwindaVcIcbvonQbr8IU-326" vertex="1">
          <mxGeometry x="138" width="131" height="32" as="geometry">
            <mxRectangle width="131" height="32" as="alternateBounds" />
          </mxGeometry>
        </mxCell>
        <mxCell id="AwindaVcIcbvonQbr8IU-329" value="50 Dias" style="connectable=0;recursiveResize=0;strokeColor=inherit;fillColor=inherit;whiteSpace=wrap;html=1;" parent="AwindaVcIcbvonQbr8IU-326" vertex="1">
          <mxGeometry x="269" width="131" height="32" as="geometry">
            <mxRectangle width="131" height="32" as="alternateBounds" />
          </mxGeometry>
        </mxCell>
        <mxCell id="AwindaVcIcbvonQbr8IU-344" style="edgeStyle=none;rounded=0;orthogonalLoop=1;jettySize=auto;html=1;exitX=1;exitY=0;exitDx=0;exitDy=0;" parent="WIyWlLk6GJQsqaUBKTNV-1" source="AwindaVcIcbvonQbr8IU-341" target="AwindaVcIcbvonQbr8IU-278" edge="1">
          <mxGeometry relative="1" as="geometry" />
        </mxCell>
        <mxCell id="AwindaVcIcbvonQbr8IU-364" style="edgeStyle=none;rounded=0;orthogonalLoop=1;jettySize=auto;html=1;exitX=0;exitY=0.5;exitDx=0;exitDy=0;" parent="WIyWlLk6GJQsqaUBKTNV-1" source="AwindaVcIcbvonQbr8IU-341" target="AwindaVcIcbvonQbr8IU-359" edge="1">
          <mxGeometry relative="1" as="geometry" />
        </mxCell>
        <mxCell id="AwindaVcIcbvonQbr8IU-341" value="Receita" style="rounded=0;whiteSpace=wrap;html=1;direction=west;" parent="WIyWlLk6GJQsqaUBKTNV-1" vertex="1">
          <mxGeometry x="1160" y="335" width="120" height="60" as="geometry" />
        </mxCell>
        <mxCell id="AwindaVcIcbvonQbr8IU-363" style="edgeStyle=none;rounded=0;orthogonalLoop=1;jettySize=auto;html=1;" parent="WIyWlLk6GJQsqaUBKTNV-1" source="AwindaVcIcbvonQbr8IU-354" edge="1">
          <mxGeometry relative="1" as="geometry">
            <mxPoint x="1640" y="340" as="targetPoint" />
          </mxGeometry>
        </mxCell>
        <mxCell id="AwindaVcIcbvonQbr8IU-354" value="" style="shape=table;startSize=0;container=1;collapsible=0;childLayout=tableLayout;" parent="WIyWlLk6GJQsqaUBKTNV-1" vertex="1">
          <mxGeometry x="1350" y="310" width="370" height="110" as="geometry" />
        </mxCell>
        <mxCell id="AwindaVcIcbvonQbr8IU-355" value="" style="shape=tableRow;horizontal=0;startSize=0;swimlaneHead=0;swimlaneBody=0;strokeColor=inherit;top=0;left=0;bottom=0;right=0;collapsible=0;dropTarget=0;fillColor=none;points=[[0,0.5],[1,0.5]];portConstraint=eastwest;" parent="AwindaVcIcbvonQbr8IU-354" vertex="1">
          <mxGeometry width="370" height="40" as="geometry" />
        </mxCell>
        <mxCell id="AwindaVcIcbvonQbr8IU-356" value="Medicamento" style="shape=partialRectangle;html=1;whiteSpace=wrap;connectable=0;strokeColor=inherit;overflow=hidden;fillColor=none;top=0;left=0;bottom=0;right=0;pointerEvents=1;" parent="AwindaVcIcbvonQbr8IU-355" vertex="1">
          <mxGeometry width="123" height="40" as="geometry">
            <mxRectangle width="123" height="40" as="alternateBounds" />
          </mxGeometry>
        </mxCell>
        <mxCell id="AwindaVcIcbvonQbr8IU-357" value="Quantidade" style="shape=partialRectangle;html=1;whiteSpace=wrap;connectable=0;strokeColor=inherit;overflow=hidden;fillColor=none;top=0;left=0;bottom=0;right=0;pointerEvents=1;" parent="AwindaVcIcbvonQbr8IU-355" vertex="1">
          <mxGeometry x="123" width="124" height="40" as="geometry">
            <mxRectangle width="124" height="40" as="alternateBounds" />
          </mxGeometry>
        </mxCell>
        <mxCell id="AwindaVcIcbvonQbr8IU-358" value="Modo de uso&amp;nbsp;" style="shape=partialRectangle;html=1;whiteSpace=wrap;connectable=0;strokeColor=inherit;overflow=hidden;fillColor=none;top=0;left=0;bottom=0;right=0;pointerEvents=1;" parent="AwindaVcIcbvonQbr8IU-355" vertex="1">
          <mxGeometry x="247" width="123" height="40" as="geometry">
            <mxRectangle width="123" height="40" as="alternateBounds" />
          </mxGeometry>
        </mxCell>
        <mxCell id="AwindaVcIcbvonQbr8IU-359" value="" style="shape=tableRow;horizontal=0;startSize=0;swimlaneHead=0;swimlaneBody=0;strokeColor=inherit;top=0;left=0;bottom=0;right=0;collapsible=0;dropTarget=0;fillColor=none;points=[[0,0.5],[1,0.5]];portConstraint=eastwest;" parent="AwindaVcIcbvonQbr8IU-354" vertex="1">
          <mxGeometry y="40" width="370" height="70" as="geometry" />
        </mxCell>
        <mxCell id="AwindaVcIcbvonQbr8IU-360" value="" style="shape=partialRectangle;html=1;whiteSpace=wrap;connectable=0;strokeColor=inherit;overflow=hidden;fillColor=none;top=0;left=0;bottom=0;right=0;pointerEvents=1;" parent="AwindaVcIcbvonQbr8IU-359" vertex="1">
          <mxGeometry width="123" height="70" as="geometry">
            <mxRectangle width="123" height="70" as="alternateBounds" />
          </mxGeometry>
        </mxCell>
        <mxCell id="AwindaVcIcbvonQbr8IU-361" value="" style="shape=partialRectangle;html=1;whiteSpace=wrap;connectable=0;strokeColor=inherit;overflow=hidden;fillColor=none;top=0;left=0;bottom=0;right=0;pointerEvents=1;" parent="AwindaVcIcbvonQbr8IU-359" vertex="1">
          <mxGeometry x="123" width="124" height="70" as="geometry">
            <mxRectangle width="124" height="70" as="alternateBounds" />
          </mxGeometry>
        </mxCell>
        <mxCell id="AwindaVcIcbvonQbr8IU-362" value="" style="shape=partialRectangle;html=1;whiteSpace=wrap;connectable=0;strokeColor=inherit;overflow=hidden;fillColor=none;top=0;left=0;bottom=0;right=0;pointerEvents=1;" parent="AwindaVcIcbvonQbr8IU-359" vertex="1">
          <mxGeometry x="247" width="123" height="70" as="geometry">
            <mxRectangle width="123" height="70" as="alternateBounds" />
          </mxGeometry>
        </mxCell>
        <mxCell id="jXCr0CRvBW8UPMfNdvnt-0" value="CONSULTA" style="rounded=0;whiteSpace=wrap;html=1;direction=west;" vertex="1" parent="WIyWlLk6GJQsqaUBKTNV-1">
          <mxGeometry x="740" y="330" width="120" height="60" as="geometry" />
        </mxCell>
        <mxCell id="jXCr0CRvBW8UPMfNdvnt-23" style="edgeStyle=orthogonalEdgeStyle;rounded=0;orthogonalLoop=1;jettySize=auto;html=1;exitX=1;exitY=0.5;exitDx=0;exitDy=0;entryX=1.004;entryY=0.457;entryDx=0;entryDy=0;entryPerimeter=0;" edge="1" parent="WIyWlLk6GJQsqaUBKTNV-1" source="jXCr0CRvBW8UPMfNdvnt-0" target="jXCr0CRvBW8UPMfNdvnt-2">
          <mxGeometry relative="1" as="geometry" />
        </mxCell>
        <mxCell id="jXCr0CRvBW8UPMfNdvnt-2" value="Assets" style="childLayout=tableLayout;recursiveResize=0;strokeColor=#98bf21;fillColor=#A7C942;shadow=1;" vertex="1" parent="WIyWlLk6GJQsqaUBKTNV-1">
          <mxGeometry x="-380" y="250" width="967" height="119" as="geometry" />
        </mxCell>
        <mxCell id="jXCr0CRvBW8UPMfNdvnt-3" style="shape=tableRow;horizontal=0;startSize=0;swimlaneHead=0;swimlaneBody=0;top=0;left=0;bottom=0;right=0;dropTarget=0;collapsible=0;recursiveResize=0;expand=0;fontStyle=0;strokeColor=inherit;fillColor=#ffffff;" vertex="1" parent="jXCr0CRvBW8UPMfNdvnt-2">
          <mxGeometry width="967" height="22" as="geometry" />
        </mxCell>
        <mxCell id="jXCr0CRvBW8UPMfNdvnt-4" value="Paciente" style="connectable=0;recursiveResize=0;strokeColor=inherit;fillColor=#A7C942;align=center;fontStyle=1;fontColor=#FFFFFF;html=1;" vertex="1" parent="jXCr0CRvBW8UPMfNdvnt-3">
          <mxGeometry width="127" height="22" as="geometry">
            <mxRectangle width="127" height="22" as="alternateBounds" />
          </mxGeometry>
        </mxCell>
        <mxCell id="jXCr0CRvBW8UPMfNdvnt-5" value="Medico" style="connectable=0;recursiveResize=0;strokeColor=inherit;fillColor=#A7C942;align=center;fontStyle=1;fontColor=#FFFFFF;html=1;" vertex="1" parent="jXCr0CRvBW8UPMfNdvnt-3">
          <mxGeometry x="127" width="120" height="22" as="geometry">
            <mxRectangle width="120" height="22" as="alternateBounds" />
          </mxGeometry>
        </mxCell>
        <mxCell id="jXCr0CRvBW8UPMfNdvnt-6" value="Hora" style="connectable=0;recursiveResize=0;strokeColor=inherit;fillColor=#A7C942;align=center;fontStyle=1;fontColor=#FFFFFF;html=1;" vertex="1" parent="jXCr0CRvBW8UPMfNdvnt-3">
          <mxGeometry x="247" width="120" height="22" as="geometry">
            <mxRectangle width="120" height="22" as="alternateBounds" />
          </mxGeometry>
        </mxCell>
        <mxCell id="jXCr0CRvBW8UPMfNdvnt-34" value="Data" style="connectable=0;recursiveResize=0;strokeColor=inherit;fillColor=#A7C942;align=center;fontStyle=1;fontColor=#FFFFFF;html=1;" vertex="1" parent="jXCr0CRvBW8UPMfNdvnt-3">
          <mxGeometry x="367" width="120" height="22" as="geometry">
            <mxRectangle width="120" height="22" as="alternateBounds" />
          </mxGeometry>
        </mxCell>
        <mxCell id="jXCr0CRvBW8UPMfNdvnt-39" value="Especialidade" style="connectable=0;recursiveResize=0;strokeColor=inherit;fillColor=#A7C942;align=center;fontStyle=1;fontColor=#FFFFFF;html=1;" vertex="1" parent="jXCr0CRvBW8UPMfNdvnt-3">
          <mxGeometry x="487" width="120" height="22" as="geometry">
            <mxRectangle width="120" height="22" as="alternateBounds" />
          </mxGeometry>
        </mxCell>
        <mxCell id="jXCr0CRvBW8UPMfNdvnt-45" value="Convenio" style="connectable=0;recursiveResize=0;strokeColor=inherit;fillColor=#A7C942;align=center;fontStyle=1;fontColor=#FFFFFF;html=1;" vertex="1" parent="jXCr0CRvBW8UPMfNdvnt-3">
          <mxGeometry x="607" width="120" height="22" as="geometry">
            <mxRectangle width="120" height="22" as="alternateBounds" />
          </mxGeometry>
        </mxCell>
        <mxCell id="jXCr0CRvBW8UPMfNdvnt-50" value="Numero da carteira" style="connectable=0;recursiveResize=0;strokeColor=inherit;fillColor=#A7C942;align=center;fontStyle=1;fontColor=#FFFFFF;html=1;" vertex="1" parent="jXCr0CRvBW8UPMfNdvnt-3">
          <mxGeometry x="727" width="120" height="22" as="geometry">
            <mxRectangle width="120" height="22" as="alternateBounds" />
          </mxGeometry>
        </mxCell>
        <mxCell id="jXCr0CRvBW8UPMfNdvnt-55" style="connectable=0;recursiveResize=0;strokeColor=inherit;fillColor=#A7C942;align=center;fontStyle=1;fontColor=#FFFFFF;html=1;" vertex="1" parent="jXCr0CRvBW8UPMfNdvnt-3">
          <mxGeometry x="847" width="120" height="22" as="geometry">
            <mxRectangle width="120" height="22" as="alternateBounds" />
          </mxGeometry>
        </mxCell>
        <mxCell id="jXCr0CRvBW8UPMfNdvnt-7" value="" style="shape=tableRow;horizontal=0;startSize=0;swimlaneHead=0;swimlaneBody=0;top=0;left=0;bottom=0;right=0;dropTarget=0;collapsible=0;recursiveResize=0;expand=0;fontStyle=0;strokeColor=inherit;fillColor=#ffffff;" vertex="1" parent="jXCr0CRvBW8UPMfNdvnt-2">
          <mxGeometry y="22" width="967" height="20" as="geometry" />
        </mxCell>
        <mxCell id="jXCr0CRvBW8UPMfNdvnt-8" value="Luba" style="connectable=0;recursiveResize=0;strokeColor=inherit;fillColor=inherit;align=center;whiteSpace=wrap;html=1;" vertex="1" parent="jXCr0CRvBW8UPMfNdvnt-7">
          <mxGeometry width="127" height="20" as="geometry">
            <mxRectangle width="127" height="20" as="alternateBounds" />
          </mxGeometry>
        </mxCell>
        <mxCell id="jXCr0CRvBW8UPMfNdvnt-9" value="" style="connectable=0;recursiveResize=0;strokeColor=inherit;fillColor=inherit;align=center;whiteSpace=wrap;html=1;" vertex="1" parent="jXCr0CRvBW8UPMfNdvnt-7">
          <mxGeometry x="127" width="120" height="20" as="geometry">
            <mxRectangle width="120" height="20" as="alternateBounds" />
          </mxGeometry>
        </mxCell>
        <mxCell id="jXCr0CRvBW8UPMfNdvnt-10" value="" style="connectable=0;recursiveResize=0;strokeColor=inherit;fillColor=inherit;align=center;whiteSpace=wrap;html=1;" vertex="1" parent="jXCr0CRvBW8UPMfNdvnt-7">
          <mxGeometry x="247" width="120" height="20" as="geometry">
            <mxRectangle width="120" height="20" as="alternateBounds" />
          </mxGeometry>
        </mxCell>
        <mxCell id="jXCr0CRvBW8UPMfNdvnt-35" style="connectable=0;recursiveResize=0;strokeColor=inherit;fillColor=inherit;align=center;whiteSpace=wrap;html=1;" vertex="1" parent="jXCr0CRvBW8UPMfNdvnt-7">
          <mxGeometry x="367" width="120" height="20" as="geometry">
            <mxRectangle width="120" height="20" as="alternateBounds" />
          </mxGeometry>
        </mxCell>
        <mxCell id="jXCr0CRvBW8UPMfNdvnt-40" style="connectable=0;recursiveResize=0;strokeColor=inherit;fillColor=inherit;align=center;whiteSpace=wrap;html=1;" vertex="1" parent="jXCr0CRvBW8UPMfNdvnt-7">
          <mxGeometry x="487" width="120" height="20" as="geometry">
            <mxRectangle width="120" height="20" as="alternateBounds" />
          </mxGeometry>
        </mxCell>
        <mxCell id="jXCr0CRvBW8UPMfNdvnt-46" style="connectable=0;recursiveResize=0;strokeColor=inherit;fillColor=inherit;align=center;whiteSpace=wrap;html=1;" vertex="1" parent="jXCr0CRvBW8UPMfNdvnt-7">
          <mxGeometry x="607" width="120" height="20" as="geometry">
            <mxRectangle width="120" height="20" as="alternateBounds" />
          </mxGeometry>
        </mxCell>
        <mxCell id="jXCr0CRvBW8UPMfNdvnt-51" style="connectable=0;recursiveResize=0;strokeColor=inherit;fillColor=inherit;align=center;whiteSpace=wrap;html=1;" vertex="1" parent="jXCr0CRvBW8UPMfNdvnt-7">
          <mxGeometry x="727" width="120" height="20" as="geometry">
            <mxRectangle width="120" height="20" as="alternateBounds" />
          </mxGeometry>
        </mxCell>
        <mxCell id="jXCr0CRvBW8UPMfNdvnt-56" style="connectable=0;recursiveResize=0;strokeColor=inherit;fillColor=inherit;align=center;whiteSpace=wrap;html=1;" vertex="1" parent="jXCr0CRvBW8UPMfNdvnt-7">
          <mxGeometry x="847" width="120" height="20" as="geometry">
            <mxRectangle width="120" height="20" as="alternateBounds" />
          </mxGeometry>
        </mxCell>
        <mxCell id="jXCr0CRvBW8UPMfNdvnt-11" value="" style="shape=tableRow;horizontal=0;startSize=0;swimlaneHead=0;swimlaneBody=0;top=0;left=0;bottom=0;right=0;dropTarget=0;collapsible=0;recursiveResize=0;expand=0;fontStyle=1;strokeColor=inherit;fillColor=#EAF2D3;" vertex="1" parent="jXCr0CRvBW8UPMfNdvnt-2">
          <mxGeometry y="42" width="967" height="23" as="geometry" />
        </mxCell>
        <mxCell id="jXCr0CRvBW8UPMfNdvnt-12" value="Gabriel" style="connectable=0;recursiveResize=0;strokeColor=inherit;fillColor=inherit;whiteSpace=wrap;html=1;" vertex="1" parent="jXCr0CRvBW8UPMfNdvnt-11">
          <mxGeometry width="127" height="23" as="geometry">
            <mxRectangle width="127" height="23" as="alternateBounds" />
          </mxGeometry>
        </mxCell>
        <mxCell id="jXCr0CRvBW8UPMfNdvnt-13" value="" style="connectable=0;recursiveResize=0;strokeColor=inherit;fillColor=inherit;whiteSpace=wrap;html=1;" vertex="1" parent="jXCr0CRvBW8UPMfNdvnt-11">
          <mxGeometry x="127" width="120" height="23" as="geometry">
            <mxRectangle width="120" height="23" as="alternateBounds" />
          </mxGeometry>
        </mxCell>
        <mxCell id="jXCr0CRvBW8UPMfNdvnt-14" value="" style="connectable=0;recursiveResize=0;strokeColor=inherit;fillColor=inherit;whiteSpace=wrap;html=1;" vertex="1" parent="jXCr0CRvBW8UPMfNdvnt-11">
          <mxGeometry x="247" width="120" height="23" as="geometry">
            <mxRectangle width="120" height="23" as="alternateBounds" />
          </mxGeometry>
        </mxCell>
        <mxCell id="jXCr0CRvBW8UPMfNdvnt-36" style="connectable=0;recursiveResize=0;strokeColor=inherit;fillColor=inherit;whiteSpace=wrap;html=1;" vertex="1" parent="jXCr0CRvBW8UPMfNdvnt-11">
          <mxGeometry x="367" width="120" height="23" as="geometry">
            <mxRectangle width="120" height="23" as="alternateBounds" />
          </mxGeometry>
        </mxCell>
        <mxCell id="jXCr0CRvBW8UPMfNdvnt-41" style="connectable=0;recursiveResize=0;strokeColor=inherit;fillColor=inherit;whiteSpace=wrap;html=1;" vertex="1" parent="jXCr0CRvBW8UPMfNdvnt-11">
          <mxGeometry x="487" width="120" height="23" as="geometry">
            <mxRectangle width="120" height="23" as="alternateBounds" />
          </mxGeometry>
        </mxCell>
        <mxCell id="jXCr0CRvBW8UPMfNdvnt-47" style="connectable=0;recursiveResize=0;strokeColor=inherit;fillColor=inherit;whiteSpace=wrap;html=1;" vertex="1" parent="jXCr0CRvBW8UPMfNdvnt-11">
          <mxGeometry x="607" width="120" height="23" as="geometry">
            <mxRectangle width="120" height="23" as="alternateBounds" />
          </mxGeometry>
        </mxCell>
        <mxCell id="jXCr0CRvBW8UPMfNdvnt-52" style="connectable=0;recursiveResize=0;strokeColor=inherit;fillColor=inherit;whiteSpace=wrap;html=1;" vertex="1" parent="jXCr0CRvBW8UPMfNdvnt-11">
          <mxGeometry x="727" width="120" height="23" as="geometry">
            <mxRectangle width="120" height="23" as="alternateBounds" />
          </mxGeometry>
        </mxCell>
        <mxCell id="jXCr0CRvBW8UPMfNdvnt-57" style="connectable=0;recursiveResize=0;strokeColor=inherit;fillColor=inherit;whiteSpace=wrap;html=1;" vertex="1" parent="jXCr0CRvBW8UPMfNdvnt-11">
          <mxGeometry x="847" width="120" height="23" as="geometry">
            <mxRectangle width="120" height="23" as="alternateBounds" />
          </mxGeometry>
        </mxCell>
        <mxCell id="jXCr0CRvBW8UPMfNdvnt-15" value="" style="shape=tableRow;horizontal=0;startSize=0;swimlaneHead=0;swimlaneBody=0;top=0;left=0;bottom=0;right=0;dropTarget=0;collapsible=0;recursiveResize=0;expand=0;fontStyle=0;strokeColor=inherit;fillColor=#ffffff;" vertex="1" parent="jXCr0CRvBW8UPMfNdvnt-2">
          <mxGeometry y="65" width="967" height="22" as="geometry" />
        </mxCell>
        <mxCell id="jXCr0CRvBW8UPMfNdvnt-16" value="Orochinho" style="connectable=0;recursiveResize=0;strokeColor=inherit;fillColor=inherit;fontStyle=0;align=center;whiteSpace=wrap;html=1;" vertex="1" parent="jXCr0CRvBW8UPMfNdvnt-15">
          <mxGeometry width="127" height="22" as="geometry">
            <mxRectangle width="127" height="22" as="alternateBounds" />
          </mxGeometry>
        </mxCell>
        <mxCell id="jXCr0CRvBW8UPMfNdvnt-17" value="" style="connectable=0;recursiveResize=0;strokeColor=inherit;fillColor=inherit;fontStyle=0;align=center;whiteSpace=wrap;html=1;" vertex="1" parent="jXCr0CRvBW8UPMfNdvnt-15">
          <mxGeometry x="127" width="120" height="22" as="geometry">
            <mxRectangle width="120" height="22" as="alternateBounds" />
          </mxGeometry>
        </mxCell>
        <mxCell id="jXCr0CRvBW8UPMfNdvnt-18" value="" style="connectable=0;recursiveResize=0;strokeColor=inherit;fillColor=inherit;fontStyle=0;align=center;whiteSpace=wrap;html=1;" vertex="1" parent="jXCr0CRvBW8UPMfNdvnt-15">
          <mxGeometry x="247" width="120" height="22" as="geometry">
            <mxRectangle width="120" height="22" as="alternateBounds" />
          </mxGeometry>
        </mxCell>
        <mxCell id="jXCr0CRvBW8UPMfNdvnt-37" style="connectable=0;recursiveResize=0;strokeColor=inherit;fillColor=inherit;fontStyle=0;align=center;whiteSpace=wrap;html=1;" vertex="1" parent="jXCr0CRvBW8UPMfNdvnt-15">
          <mxGeometry x="367" width="120" height="22" as="geometry">
            <mxRectangle width="120" height="22" as="alternateBounds" />
          </mxGeometry>
        </mxCell>
        <mxCell id="jXCr0CRvBW8UPMfNdvnt-42" style="connectable=0;recursiveResize=0;strokeColor=inherit;fillColor=inherit;fontStyle=0;align=center;whiteSpace=wrap;html=1;" vertex="1" parent="jXCr0CRvBW8UPMfNdvnt-15">
          <mxGeometry x="487" width="120" height="22" as="geometry">
            <mxRectangle width="120" height="22" as="alternateBounds" />
          </mxGeometry>
        </mxCell>
        <mxCell id="jXCr0CRvBW8UPMfNdvnt-48" style="connectable=0;recursiveResize=0;strokeColor=inherit;fillColor=inherit;fontStyle=0;align=center;whiteSpace=wrap;html=1;" vertex="1" parent="jXCr0CRvBW8UPMfNdvnt-15">
          <mxGeometry x="607" width="120" height="22" as="geometry">
            <mxRectangle width="120" height="22" as="alternateBounds" />
          </mxGeometry>
        </mxCell>
        <mxCell id="jXCr0CRvBW8UPMfNdvnt-53" style="connectable=0;recursiveResize=0;strokeColor=inherit;fillColor=inherit;fontStyle=0;align=center;whiteSpace=wrap;html=1;" vertex="1" parent="jXCr0CRvBW8UPMfNdvnt-15">
          <mxGeometry x="727" width="120" height="22" as="geometry">
            <mxRectangle width="120" height="22" as="alternateBounds" />
          </mxGeometry>
        </mxCell>
        <mxCell id="jXCr0CRvBW8UPMfNdvnt-58" style="connectable=0;recursiveResize=0;strokeColor=inherit;fillColor=inherit;fontStyle=0;align=center;whiteSpace=wrap;html=1;" vertex="1" parent="jXCr0CRvBW8UPMfNdvnt-15">
          <mxGeometry x="847" width="120" height="22" as="geometry">
            <mxRectangle width="120" height="22" as="alternateBounds" />
          </mxGeometry>
        </mxCell>
        <mxCell id="jXCr0CRvBW8UPMfNdvnt-19" value="" style="shape=tableRow;horizontal=0;startSize=0;swimlaneHead=0;swimlaneBody=0;top=0;left=0;bottom=0;right=0;dropTarget=0;collapsible=0;recursiveResize=0;expand=0;fontStyle=1;strokeColor=inherit;fillColor=#EAF2D3;" vertex="1" parent="jXCr0CRvBW8UPMfNdvnt-2">
          <mxGeometry y="87" width="967" height="32" as="geometry" />
        </mxCell>
        <mxCell id="jXCr0CRvBW8UPMfNdvnt-20" value="Barão" style="connectable=0;recursiveResize=0;strokeColor=inherit;fillColor=inherit;whiteSpace=wrap;html=1;" vertex="1" parent="jXCr0CRvBW8UPMfNdvnt-19">
          <mxGeometry width="127" height="32" as="geometry">
            <mxRectangle width="127" height="32" as="alternateBounds" />
          </mxGeometry>
        </mxCell>
        <mxCell id="jXCr0CRvBW8UPMfNdvnt-21" value="" style="connectable=0;recursiveResize=0;strokeColor=inherit;fillColor=inherit;whiteSpace=wrap;html=1;" vertex="1" parent="jXCr0CRvBW8UPMfNdvnt-19">
          <mxGeometry x="127" width="120" height="32" as="geometry">
            <mxRectangle width="120" height="32" as="alternateBounds" />
          </mxGeometry>
        </mxCell>
        <mxCell id="jXCr0CRvBW8UPMfNdvnt-22" value="" style="connectable=0;recursiveResize=0;strokeColor=inherit;fillColor=inherit;whiteSpace=wrap;html=1;" vertex="1" parent="jXCr0CRvBW8UPMfNdvnt-19">
          <mxGeometry x="247" width="120" height="32" as="geometry">
            <mxRectangle width="120" height="32" as="alternateBounds" />
          </mxGeometry>
        </mxCell>
        <mxCell id="jXCr0CRvBW8UPMfNdvnt-38" style="connectable=0;recursiveResize=0;strokeColor=inherit;fillColor=inherit;whiteSpace=wrap;html=1;" vertex="1" parent="jXCr0CRvBW8UPMfNdvnt-19">
          <mxGeometry x="367" width="120" height="32" as="geometry">
            <mxRectangle width="120" height="32" as="alternateBounds" />
          </mxGeometry>
        </mxCell>
        <mxCell id="jXCr0CRvBW8UPMfNdvnt-43" style="connectable=0;recursiveResize=0;strokeColor=inherit;fillColor=inherit;whiteSpace=wrap;html=1;" vertex="1" parent="jXCr0CRvBW8UPMfNdvnt-19">
          <mxGeometry x="487" width="120" height="32" as="geometry">
            <mxRectangle width="120" height="32" as="alternateBounds" />
          </mxGeometry>
        </mxCell>
        <mxCell id="jXCr0CRvBW8UPMfNdvnt-49" style="connectable=0;recursiveResize=0;strokeColor=inherit;fillColor=inherit;whiteSpace=wrap;html=1;" vertex="1" parent="jXCr0CRvBW8UPMfNdvnt-19">
          <mxGeometry x="607" width="120" height="32" as="geometry">
            <mxRectangle width="120" height="32" as="alternateBounds" />
          </mxGeometry>
        </mxCell>
        <mxCell id="jXCr0CRvBW8UPMfNdvnt-54" style="connectable=0;recursiveResize=0;strokeColor=inherit;fillColor=inherit;whiteSpace=wrap;html=1;" vertex="1" parent="jXCr0CRvBW8UPMfNdvnt-19">
          <mxGeometry x="727" width="120" height="32" as="geometry">
            <mxRectangle width="120" height="32" as="alternateBounds" />
          </mxGeometry>
        </mxCell>
        <mxCell id="jXCr0CRvBW8UPMfNdvnt-59" style="connectable=0;recursiveResize=0;strokeColor=inherit;fillColor=inherit;whiteSpace=wrap;html=1;" vertex="1" parent="jXCr0CRvBW8UPMfNdvnt-19">
          <mxGeometry x="847" width="120" height="32" as="geometry">
            <mxRectangle width="120" height="32" as="alternateBounds" />
          </mxGeometry>
        </mxCell>
        <mxCell id="jXCr0CRvBW8UPMfNdvnt-179" value="&lt;font style=&quot;font-size: 72px;&quot;&gt;Modelo logico&amp;nbsp;&lt;/font&gt;" style="text;html=1;align=center;verticalAlign=middle;resizable=0;points=[];autosize=1;strokeColor=none;fillColor=none;" vertex="1" parent="WIyWlLk6GJQsqaUBKTNV-1">
          <mxGeometry x="770" y="-140" width="490" height="100" as="geometry" />
        </mxCell>
        <mxCell id="jXCr0CRvBW8UPMfNdvnt-181" value="MEDICO" style="rounded=0;whiteSpace=wrap;html=1;direction=west;" vertex="1" parent="WIyWlLk6GJQsqaUBKTNV-1">
          <mxGeometry x="-410" y="-1380" width="120" height="70" as="geometry" />
        </mxCell>
        <mxCell id="jXCr0CRvBW8UPMfNdvnt-183" value="" style="endArrow=none;html=1;rounded=0;entryX=0.25;entryY=0;entryDx=0;entryDy=0;exitX=1;exitY=0.5;exitDx=0;exitDy=0;edgeStyle=orthogonalEdgeStyle;" edge="1" parent="WIyWlLk6GJQsqaUBKTNV-1" source="jXCr0CRvBW8UPMfNdvnt-184" target="jXCr0CRvBW8UPMfNdvnt-181">
          <mxGeometry width="50" height="50" relative="1" as="geometry">
            <mxPoint x="-220.56" y="-1000" as="sourcePoint" />
            <mxPoint x="-220.56" y="-1130" as="targetPoint" />
          </mxGeometry>
        </mxCell>
        <mxCell id="jXCr0CRvBW8UPMfNdvnt-184" value="CONSULTA" style="rounded=1;whiteSpace=wrap;html=1;" vertex="1" parent="WIyWlLk6GJQsqaUBKTNV-1">
          <mxGeometry x="-490" y="-1280" width="120" height="60" as="geometry" />
        </mxCell>
        <mxCell id="jXCr0CRvBW8UPMfNdvnt-189" value="RECEITA" style="rounded=1;whiteSpace=wrap;html=1;" vertex="1" parent="WIyWlLk6GJQsqaUBKTNV-1">
          <mxGeometry x="-490" y="-1170" width="120" height="60" as="geometry" />
        </mxCell>
        <mxCell id="jXCr0CRvBW8UPMfNdvnt-191" value="CON VENIO" style="rounded=1;whiteSpace=wrap;html=1;" vertex="1" parent="WIyWlLk6GJQsqaUBKTNV-1">
          <mxGeometry x="-700" y="-1330" width="120" height="60" as="geometry" />
        </mxCell>
        <mxCell id="jXCr0CRvBW8UPMfNdvnt-194" value="" style="endArrow=none;html=1;rounded=0;curved=1;exitX=0.5;exitY=0;exitDx=0;exitDy=0;" edge="1" parent="WIyWlLk6GJQsqaUBKTNV-1" source="jXCr0CRvBW8UPMfNdvnt-189" target="jXCr0CRvBW8UPMfNdvnt-184">
          <mxGeometry width="50" height="50" relative="1" as="geometry">
            <mxPoint x="-360" y="-955" as="sourcePoint" />
            <mxPoint x="-310" y="-1005" as="targetPoint" />
          </mxGeometry>
        </mxCell>
        <mxCell id="jXCr0CRvBW8UPMfNdvnt-196" value="" style="endArrow=none;html=1;rounded=0;entryX=1;entryY=0.5;entryDx=0;entryDy=0;edgeStyle=orthogonalEdgeStyle;elbow=vertical;exitX=0;exitY=0.5;exitDx=0;exitDy=0;" edge="1" parent="WIyWlLk6GJQsqaUBKTNV-1" source="jXCr0CRvBW8UPMfNdvnt-184" target="jXCr0CRvBW8UPMfNdvnt-198">
          <mxGeometry width="50" height="50" relative="1" as="geometry">
            <mxPoint x="-520" y="-1160" as="sourcePoint" />
            <mxPoint x="-640" y="-1310" as="targetPoint" />
          </mxGeometry>
        </mxCell>
        <mxCell id="jXCr0CRvBW8UPMfNdvnt-198" value="PACIENTE&amp;nbsp;" style="whiteSpace=wrap;html=1;" vertex="1" parent="WIyWlLk6GJQsqaUBKTNV-1">
          <mxGeometry x="-700" y="-1440" width="120" height="60" as="geometry" />
        </mxCell>
        <mxCell id="jXCr0CRvBW8UPMfNdvnt-201" value="" style="endArrow=none;html=1;rounded=0;curved=1;exitX=0.5;exitY=0;exitDx=0;exitDy=0;entryX=0.5;entryY=1;entryDx=0;entryDy=0;" edge="1" parent="WIyWlLk6GJQsqaUBKTNV-1" source="jXCr0CRvBW8UPMfNdvnt-191" target="jXCr0CRvBW8UPMfNdvnt-198">
          <mxGeometry width="50" height="50" relative="1" as="geometry">
            <mxPoint x="-670" y="-1150" as="sourcePoint" />
            <mxPoint x="-640" y="-1240" as="targetPoint" />
          </mxGeometry>
        </mxCell>
      </root>
    </mxGraphModel>
  </diagram>
</mxfile>
